<?xml version="1.0" encoding="UTF-8" standalone="no"?>
<!-- Created with Inkscape (http://www.inkscape.org/) -->

<svg
   width="1080"
   height="1080"
   viewBox="0 0 285.75 285.75"
   version="1.1"
   id="svg5"
   inkscape:version="1.1.2 (b8e25be833, 2022-02-05)"
   sodipodi:docname="logo-black.svg"
   xmlns:inkscape="http://www.inkscape.org/namespaces/inkscape"
   xmlns:sodipodi="http://sodipodi.sourceforge.net/DTD/sodipodi-0.dtd"
   xmlns="http://www.w3.org/2000/svg"
   xmlns:svg="http://www.w3.org/2000/svg">
  <sodipodi:namedview
     id="namedview7"
     pagecolor="#ffffff"
     bordercolor="#666666"
     borderopacity="1.0"
     inkscape:pageshadow="2"
     inkscape:pageopacity="0.0"
     inkscape:pagecheckerboard="true"
     inkscape:document-units="px"
     showgrid="false"
     units="px"
     scale-x="1"
     inkscape:snap-smooth-nodes="true"
     inkscape:snap-intersection-paths="true"
     inkscape:object-paths="true"
     inkscape:zoom="0.37407407"
     inkscape:cx="-6.6831684"
     inkscape:cy="560.04951"
     inkscape:window-width="1920"
     inkscape:window-height="1001"
     inkscape:window-x="-9"
     inkscape:window-y="-9"
     inkscape:window-maximized="1"
     inkscape:current-layer="layer1" />
  <defs
     id="defs2" />
  <g
     inkscape:label="Layer 1"
     inkscape:groupmode="layer"
     id="layer1">
    <path
       id="path3321"
       style="fill:#003a46;stroke-width:10.6466;stroke-linecap:round;stroke-linejoin:round;paint-order:markers fill stroke;stop-color:#000000;fill-opacity:1"
       d="M 142.875,17.418579 124.16658,36.127515 142.875,54.836449 161.58394,36.127515 Z m 43.92652,41.690994 -9.38186,9.381857 h 33.82326 a 105.83334,105.83334 0 0 1 37.46541,80.7775 A 105.83334,105.83334 0 0 1 142.875,255.10226 105.83334,105.83334 0 0 1 37.041668,149.26893 105.83334,105.83334 0 0 1 74.552041,68.535871 l 0.0077,0.0078 H 108.383 L 99.001194,59.161766 H 65.177935 A 119.0625,119.0625 0 0 0 23.812502,149.26893 119.0625,119.0625 0 0 0 142.875,268.33142 119.0625,119.0625 0 0 0 261.9375,149.26893 119.0625,119.0625 0 0 0 220.62477,59.109572 Z m -61.83137,8.177797 c -0.47059,-2.01e-4 -0.94292,0.01562 -1.41593,0.04599 -1.26139,0.08099 -2.5279,0.26628 -3.7853,0.544669 -5.02959,1.11356 -10.06596,3.627498 -14.86886,6.925675 -9.605792,6.596356 -18.300307,16.330178 -22.947438,25.658386 -2.323569,4.6641 -3.705572,9.25896 -3.25355,13.63275 0.452025,4.37379 3.334345,8.42985 8.009332,10.203 6.472317,2.45487 16.134676,1.611 30.052946,-2.74402 -3.80297,7.68329 -8.13161,15.44802 -12.73462,22.59759 -9.322637,14.4803 -19.998338,26.3876 -28.380701,30.17955 -4.19118,1.89597 -7.367352,1.96505 -10.441223,0.10956 -3.073871,-1.8555 -6.360406,-6.22094 -9.017537,-14.29681 a 3.30729,3.30729 0 0 0 -4.175971,-2.10736 3.30729,3.30729 0 0 0 -2.107367,4.17545 c 2.932803,8.91372 6.790516,14.81897 11.882996,17.89297 5.09248,3.07401 11.103438,2.73161 16.585551,0.25166 10.964228,-4.95991 21.580279,-17.6596 31.215152,-32.62488 5.97028,-9.27329 11.34374,-19.39563 15.87293,-29.19925 3.9567,-1.46754 7.81104,-2.85495 12.41216,-4.82813 a 3.30729,3.30729 0 0 0 1.73426,-4.34392 3.30729,3.30729 0 0 0 -4.34185,-1.73633 c -2.23598,0.95889 -3.92668,1.46783 -5.99808,2.2872 1.23395,-2.98887 2.45489,-5.97231 3.45353,-8.77517 2.55467,-7.170079 4.29632,-13.57741 4.92942,-18.781288 0.31655,-2.601936 0.37394,-4.903451 -0.01,-7.000089 -0.38353,-2.096637 -1.30056,-4.231653 -3.30884,-5.497853 -2.85273,-1.798614 -6.06703,-2.567959 -9.36119,-2.569353 z m 0.28112,6.596496 c 0.41899,0.0067 0.82789,0.03266 1.2268,0.07803 1.59561,0.181491 3.03341,0.673097 4.32635,1.488281 -0.13628,-0.08592 0.13604,0.03461 0.33021,1.096058 0.19416,1.061447 0.21524,2.819892 -0.0512,5.009512 -0.53278,4.379241 -2.14188,10.478225 -4.59352,17.359145 -1.59333,4.471918 -3.63736,9.332378 -5.85752,14.289568 -16.80263,5.77632 -27.199667,6.56832 -31.577916,4.90771 -2.773555,-1.05198 -3.530377,-2.30525 -3.777548,-4.69687 -0.247169,-2.39161 0.610094,-6.01832 2.595708,-10.00404 3.971226,-7.971459 12.171146,-17.250404 20.771346,-23.156208 4.3001,-2.952904 8.69593,-5.06363 12.55478,-5.917986 1.44707,-0.320384 2.79549,-0.473376 4.05247,-0.453202 z m 62.75741,1.552361 a 3.30729,3.30729 0 0 0 -1.00304,0.254246 c -13.12687,5.629423 -22.51106,9.972238 -29.0158,13.338204 -6.50473,3.365965 -10.00488,5.411845 -12.11347,7.935435 -0.52714,0.6309 -1.0272,1.3491 -1.26349,2.42931 -0.23629,1.080198 0.0677,2.584888 0.78496,3.502108 1.43442,1.83443 2.93435,1.89386 4.36356,2.09186 2.85841,0.39599 6.45078,0.16096 10.64276,-0.22634 6.87482,-0.63517 14.61057,-1.6664 20.54655,-2.20349 -2.57156,1.97971 -4.85051,5.02669 -7.92199,9.21495 -3.77887,5.15283 -8.25279,11.86844 -13.24002,19.46289 -9.97445,15.1889 -21.98816,33.87958 -34.13694,50.1034 -12.14877,16.22382 -24.66056,29.94922 -34.39428,35.03714 -4.866859,2.54396 -8.576082,2.94565 -11.738303,1.418 -3.162218,-1.52765 -6.457643,-5.52614 -9.101769,-13.56248 a 3.30729,3.30729 0 0 0 -4.175456,-2.10736 3.30729,3.30729 0 0 0 -2.107364,4.1739 c 2.94581,8.95326 7.008781,14.79667 12.507764,17.4532 5.498984,2.65652 11.75112,1.58525 17.67954,-1.5136 11.856848,-6.19771 24.268148,-20.43452 36.623088,-36.93367 12.35494,-16.49913 24.4282,-35.29384 34.37309,-50.43774 4.97245,-7.57194 9.41576,-14.23288 13.04469,-19.18126 3.62893,-4.94837 6.97893,-8.25536 7.48274,-8.51989 2.26663,-1.19012 3.89093,-2.15881 5.12889,-3.12694 0.61898,-0.48408 1.15249,-0.95205 1.65209,-1.64642 0.4996,-0.69436 1.09613,-1.86239 0.78549,-3.335708 -0.31064,-1.47333 -1.45139,-2.39007 -2.22674,-2.77554 -0.77535,-0.38548 -1.41758,-0.50842 -2.07429,-0.60565 -1.31343,-0.19448 -2.71363,-0.19013 -4.35943,-0.12092 -6.58318,0.27685 -16.90502,1.87522 -24.95506,2.61896 -2.05817,0.19016 -3.06398,0.0911 -4.66793,0.13487 1.59004,-0.99798 3.34096,-2.08002 5.90041,-3.40444 6.25902,-3.23882 15.54049,-7.541011 28.58379,-13.134596 a 3.30729,3.30729 0 0 0 1.73632,-4.341855 3.30729,3.30729 0 0 0 -3.34036,-1.990574 z m 19.68975,15.676565 a 3.30729,3.30729 0 0 0 -2.73213,1.24953 c 0,0 -24.17818,30.445088 -45.53676,63.560458 -10.67928,16.55769 -20.66378,33.76313 -26.62938,48.40428 -2.9828,7.32057 -4.9831,13.9911 -5.4746,19.83807 -0.4915,5.84697 0.60743,11.25188 4.49998,14.75207 8.96321,8.05972 20.29989,10.36308 31.63477,8.71885 11.33488,-1.64422 22.82892,-7.05617 33.22277,-14.43582 20.78772,-14.75931 37.6006,-37.15416 37.68763,-56.24411 a 3.30729,3.30729 0 0 0 -3.29076,-3.32227 3.30729,3.30729 0 0 0 -3.32228,3.29127 c -0.0682,14.95229 -15.4013,37.03343 -34.90433,50.88061 -9.75151,6.92359 -20.43952,11.84857 -30.34181,13.28498 -9.90229,1.43642 -18.85967,-0.43562 -26.26403,-7.09362 -1.8327,-1.64796 -2.72822,-4.54283 -2.33009,-9.27902 0.39813,-4.73619 2.17173,-10.93365 5.00796,-17.89452 5.67247,-13.92173 15.4991,-30.93642 26.06249,-47.31442 21.12679,-32.75599 45.16004,-63.035429 45.16004,-63.035429 a 3.30729,3.30729 0 0 0 -0.53279,-4.64623 3.30729,3.30729 0 0 0 -1.91668,-0.714679 z m 17.97668,34.313658 a 6.6145835,6.6145835 0 0 0 -6.61458,6.61459 6.6145835,6.6145835 0 0 0 6.61458,6.61458 6.6145835,6.6145835 0 0 0 6.61459,-6.61458 6.6145835,6.6145835 0 0 0 -6.61459,-6.61459 z m -13.00334,13.00386 a 6.6145835,6.6145835 0 0 0 -6.61458,6.61458 6.6145835,6.6145835 0 0 0 6.61458,6.61459 6.6145835,6.6145835 0 0 0 6.61459,-6.61459 6.6145835,6.6145835 0 0 0 -6.61459,-6.61458 z m 18.0051,4.50102 a 6.6145835,6.6145835 0 0 0 -6.61458,6.61458 6.6145835,6.6145835 0 0 0 6.61458,6.61459 6.6145835,6.6145835 0 0 0 6.61459,-6.61459 6.6145835,6.6145835 0 0 0 -6.61459,-6.61458 z" />
  </g>
</svg>
